<svg xmlns="http://www.w3.org/2000/svg" viewBox="0 0 118.47 121.77"><defs><style>.cls-1{fill:#fff;}.cls-2{fill:#dadcdc;stroke:#dadcdc;stroke-width:0.03px;}.cls-3{fill:#67121e;}</style></defs><title>Global</title><g id="Layer_2" data-name="Layer 2"><path class="cls-1" d="M15.57,29.64c25.35-12.09,49.16-9.36,61.68-5.17a183.48,183.48,0,0,0,29.35,7.4V14.94c-3.94-1.13-8-2.45-12.12-4C51.24-5.13,22.3,9.29,15.57,29.64Z"/><path class="cls-1" d="M29.63,39.6c12.49-5.21,26.86-6.48,46.77-2.17C88.25,40,98.24,40.17,106.6,38.56V33.08c-8.66-.22-18.41-2.46-29.44-5.61C51.65,20.15,37.4,28.17,29.63,39.6Z"/><path class="cls-2" d="M97.87,53.82C72.52,65.91,48.71,63.19,36.19,59a196.57,196.57,0,0,0-25.07-6.56V70c2.4.77,5.38,1.61,7.84,2.53C62.2,88.6,91.13,74.18,97.87,53.82Z"/><path class="cls-2" d="M36.28,56C61.8,63.31,76,55.3,83.81,43.87,71.32,49.07,56.95,50.35,37,46a84.27,84.27,0,0,0-25.92-1.85v6.46C18.65,51.38,27.08,53.38,36.28,56Z"/><path class="cls-3" d="M37,46c19.91,4.31,34.28,3,46.77-2.17C76,55.3,61.8,63.31,36.28,56c-9.2-2.63-17.63-4.63-25.16-5.36v1.79A196.57,196.57,0,0,1,36.19,59c12.53,4.18,36.34,6.91,61.69-5.18C91.13,74.18,62.2,88.6,19,72.52c-2.46-.92-5.44-1.76-7.84-2.53V84.16H106.6V38.56C98.24,40.17,88.25,40,76.4,37.43c-19.91-4.31-34.28-3-46.77,2.17,7.77-11.43,22-19.45,47.54-12.14,11,3.15,20.78,5.4,29.44,5.61V31.86a183.48,183.48,0,0,1-29.35-7.4c-12.52-4.19-36.33-6.91-61.68,5.17C22.3,9.29,51.24-5.13,94.48,10.95c4.15,1.54,8.18,2.86,12.12,4V0H11.12V44.19A84.27,84.27,0,0,1,37,46Z"/><polygon class="cls-3" points="0 121.47 3.32 121.47 3.32 110.76 12.31 110.76 12.31 107.78 3.32 107.78 3.32 101.39 12.31 101.39 12.31 98.41 0 98.41 0 121.47"/><polygon class="cls-3" points="18.36 111.33 27.79 111.33 27.79 108.35 18.36 108.35 18.36 101.39 28.12 101.39 28.12 98.41 15.04 98.41 15.04 121.47 28.43 121.47 28.43 118.5 18.36 118.5 18.36 111.33"/><path class="cls-3" d="M33.31,110c0-5.07,3.92-8.82,9.19-8.82a15.17,15.17,0,0,1,7.95,2.4V100a20.1,20.1,0,0,0-7.92-1.89c-7.33,0-12.64,5.14-12.64,12.18,0,4.83,3.78,11.49,12.44,11.49a17,17,0,0,0,8.35-2v-3.62a15.08,15.08,0,0,1-8,2.6C37.09,118.73,33.31,115.15,33.31,110Z"/><polygon class="cls-3" points="69.75 108.46 56.84 108.46 56.84 98.41 53.52 98.41 53.52 121.47 56.84 121.47 56.84 111.43 69.75 111.43 69.75 121.47 73.07 121.47 73.07 98.41 69.75 98.41 69.75 108.46"/><path class="cls-3" d="M85.54,98.28l-9.9,23.19H79l2.9-6.8h9.8l3.08,6.8h3.38L87.88,98.28H85.54m4.83,13.42H83.21l3.45-8.35"/><path class="cls-3" d="M110.42,118.73c-5.55,0-9.34-3.58-9.34-8.75s3.93-8.82,9.2-8.82a15.16,15.16,0,0,1,7.94,2.4V100a20.07,20.07,0,0,0-7.91-1.89c-7.33,0-12.64,5.14-12.64,12.18,0,4.83,3.79,11.49,12.44,11.49a17,17,0,0,0,8.35-2v-3.62A15.11,15.11,0,0,1,110.42,118.73Z"/></g></svg>